<svg id="line" height="512" viewBox="0 0 64 64" width="512" xmlns="http://www.w3.org/2000/svg"><g fill="#c4a2fc"><path d="m31 13h-8a2 2 0 0 0 -2 2v40a2 2 0 0 0 2 2h2v4a2 2 0 0 0 2 2h4z"/><path d="m48 19h10v32h-10z"/><path d="m61 13h-18v50h14a2 2 0 0 0 2-2v-4h2a2 2 0 0 0 2-2v-40a2 2 0 0 0 -2-2zm-1 39a1 1 0 0 1 -1 1h-12a1 1 0 0 1 -1-1v-34a1 1 0 0 1 1-1h12a1 1 0 0 1 1 1z"/><path d="m33 39h8v6h-8z"/><path d="m33 23h8v6h-8z"/><path d="m33 31h8v6h-8z"/><path d="m33 13h8v8h-8z"/><path d="m33 47h8v6h-8z"/><path d="m33 55h8v8h-8z"/></g><path d="m34 9h-8v-1a3 3 0 0 0 -3-3v-3a1 1 0 0 0 -2 0v3a3 3 0 0 0 -3 3v1h-8a9.011 9.011 0 0 0 -9 9v19.056a5.944 5.944 0 0 0 11.261 2.658l2.357-4.714h14.764l2.357 4.714a5.944 5.944 0 0 0 11.261-2.658v-19.056a9.01 9.01 0 0 0 -9-9zm-14-1a1 1 0 0 1 1-1h2a1 1 0 0 1 1 1v1h-4zm21 29.056a3.945 3.945 0 0 1 -7.473 1.764l-2.627-5.267a1 1 0 0 0 -.9-.553h-16a1 1 0 0 0 -.895.553l-2.633 5.267a3.944 3.944 0 0 1 -7.472-1.764v-19.056a7.008 7.008 0 0 1 7-7h24a7.008 7.008 0 0 1 7 7z" fill="#151a6a"/><path d="m19 22a3 3 0 0 0 -3-3h-1v-1a3 3 0 0 0 -6 0v1h-1a3 3 0 0 0 0 6h1v1a3 3 0 0 0 6 0v-1h1a3 3 0 0 0 3-3zm-3 1h-2a1 1 0 0 0 -1 1v2a1 1 0 0 1 -2 0v-2a1 1 0 0 0 -1-1h-2a1 1 0 0 1 0-2h2a1 1 0 0 0 1-1v-2a1 1 0 0 1 2 0v2a1 1 0 0 0 1 1h2a1 1 0 0 1 0 2z" fill="#151a6a"/><path d="m36 19h-1v-1a3 3 0 0 0 -6 0v1h-1a3 3 0 0 0 0 6h1v1a3 3 0 0 0 6 0v-1h1a3 3 0 0 0 0-6zm0 4h-2a1 1 0 0 0 -1 1v2a1 1 0 0 1 -2 0v-2a1 1 0 0 0 -1-1h-2a1 1 0 0 1 0-2h2a1 1 0 0 0 1-1v-2a1 1 0 0 1 2 0v2a1 1 0 0 0 1 1h2a1 1 0 0 1 0 2z" fill="#151a6a"/><path d="m19 28h-1a1 1 0 0 0 0 2h1a1 1 0 0 0 0-2z" fill="#151a6a"/><path d="m26 28h-1a1 1 0 0 0 0 2h1a1 1 0 0 0 0-2z" fill="#151a6a"/><path d="m19 15h6a1 1 0 0 0 0-2h-6a1 1 0 0 0 0 2z" fill="#151a6a"/></svg>