<?xml version="1.0" ?><svg viewBox="0 0 64 64" xmlns="http://www.w3.org/2000/svg"><title/><desc/><g data-name="Fill Outline" id="Fill_Outline"><g data-name="Stroke copy" id="Stroke_copy"><rect height="4" rx="2" ry="2" style="fill:#fcbc04" width="26" x="35" y="47"/><polygon points="7 61 5 61 7 51 11 51 7 61" style="fill:#d0d8da"/><polygon points="23 61 25 61 23 51 19 51 23 61" style="fill:#d0d8da"/><path d="M23.83,45H21V41a4,4,0,0,0-4-4H11a2,2,0,0,1-2-2V32.17A3.13,3.13,0,0,0,6.16,29,3,3,0,0,0,3,32V47a4,4,0,0,0,4,4H24a3,3,0,0,0,3-3.16A3.13,3.13,0,0,0,23.83,45Z" style="fill:#57b7eb"/><polygon points="23.6 54 23 51 19 51 20.2 54 23.6 54" style="fill:#93999a"/><polygon points="9.8 54 11 51 7 51 6.4 54 9.8 54" style="fill:#93999a"/><path d="M18,44h0a4,4,0,0,0-4-4H10a4,4,0,0,1-4-4V29a3,3,0,0,0-3,3V47a4,4,0,0,0,4,4H24a3,3,0,0,0,3-3H22A4,4,0,0,1,18,44Z" style="fill:#4891d3"/><rect height="7" style="fill:#4891d3" width="5" x="39" y="40"/><rect height="18" style="fill:#57b7eb" width="18" x="23" y="9"/><path d="M26,16V9H23V27H41V24H34A8,8,0,0,1,26,16Z" style="fill:#4891d3"/><circle cx="32" cy="15" r="2" style="fill:#f9e109"/><path d="M34.41,21.59a3.41,3.41,0,0,1-4.82,0,3.43,3.43,0,0,0-3.68-.76L23,22v5H41V22l-2.91-1.17A3.43,3.43,0,0,0,34.41,21.59Z" style="fill:#c4f236"/><path d="M27.47,20.61a3.37,3.37,0,0,0-1.56.22L23,22v5H41V24H34A8,8,0,0,1,27.47,20.61Z" style="fill:#a1d51c"/><path d="M58,42a4,4,0,0,0-2-3.45V36H52v2.55a4,4,0,0,0-1,6.07V47h6V44.62A4,4,0,0,0,58,42Z" style="fill:#d0d8da"/><path d="M57,32h3a0,0,0,0,1,0,0v0a4,4,0,0,1-4,4H54a0,0,0,0,1,0,0V35A3,3,0,0,1,57,32Z" style="fill:#c4f236"/><path d="M48,32h2a4,4,0,0,1,4,4v0a0,0,0,0,1,0,0H51a3,3,0,0,1-3-3V32A0,0,0,0,1,48,32Z" style="fill:#c4f236" transform="translate(102 68) rotate(-180)"/><path d="M50,28h2a4,4,0,0,1,4,4v0a0,0,0,0,1,0,0H53a3,3,0,0,1-3-3V28A0,0,0,0,1,50,28Z" style="fill:#c4f236" transform="translate(69.26 88.69) rotate(-135)"/><path d="M53,44.62a4,4,0,0,1,1-6.07V38h2V36H52v2.55a4,4,0,0,0-1,6.07V47h4.38A2.39,2.39,0,0,1,53,44.62Z" style="fill:#93999a"/><path d="M56,34H54.18A3,3,0,0,0,54,35v1h2a4,4,0,0,0,4-4h-.55A4,4,0,0,1,56,34Z" style="fill:#a1d51c"/><path d="M52,34a4,4,0,0,1-3.45-2H48a4,4,0,0,0,4,4h2V35a3,3,0,0,0-.18-1Z" style="fill:#a1d51c"/><path d="M54.71,31.54l-1.42-1.42a4,4,0,0,1-1.1-3.53,4,4,0,0,0,.1,5.53l1.42,1.42.7-.71A3,3,0,0,0,55.27,31Z" style="fill:#a1d51c"/><path d="M41,40h3a0,0,0,0,1,0,0v5a0,0,0,0,1,0,0h0a3,3,0,0,1-3-3V40A0,0,0,0,1,41,40Z" style="fill:#57b7eb"/><path d="M39,47H59a2,2,0,0,1,2,2v0a0,0,0,0,1,0,0H41a2,2,0,0,1-2-2v0A0,0,0,0,1,39,47Z" style="fill:#f9e109"/></g><g data-name="Outline copy" id="Outline_copy"><path d="M62,49a3,3,0,0,0-3-3H58V45a4.92,4.92,0,0,0,1-3,5,5,0,0,0-2-4V36.9A5,5,0,0,0,61,32a1,1,0,0,0-1-1H57a3.65,3.65,0,0,0-.74.08c0-.13,0-.25,0-.37a4,4,0,0,0-1.17-2.83L53,25.76a1,1,0,0,0-1.41,0A4.9,4.9,0,0,0,50.44,31H48a1,1,0,0,0-1,1,5,5,0,0,0,4,4.9V38a5,5,0,0,0-2,4,4.92,4.92,0,0,0,1,3v1H45V40a1,1,0,0,0-1-1H37a3,3,0,0,0,0,6h1v1H37a3,3,0,0,0,0,6h1.66L36,60.71a1,1,0,0,0,1.92.58L40.74,52H55.26L58,61.29A1,1,0,1,0,60,60.71L57.34,52H59A3,3,0,0,0,62,49ZM58.83,33A3,3,0,0,1,56,35H55a2,2,0,0,1,2-2Zm-6.42-5,1.3,1.29a2,2,0,0,1,.58,1.42,2,2,0,0,1-.56,1.38l-.3-.24L53,31.41a3,3,0,0,1-.88-2.12A3,3,0,0,1,52.41,28Zm-3.24,5H51a2,2,0,0,1,1.08.32l.6.6A2,2,0,0,1,53,35H52A3,3,0,0,1,49.17,33Zm2.58,11a3,3,0,0,1,.75-4.54,1,1,0,0,0,.5-.87V37h2v1.55a1,1,0,0,0,.5.87A3,3,0,0,1,56.25,44a1,1,0,0,0-.25.66V46H52V44.62A1,1,0,0,0,51.75,44ZM37,43a1,1,0,0,1,0-2h1v2Zm3-2h3v5H40Zm-4,8a1,1,0,0,1,1-1H59a1,1,0,0,1,0,2H37A1,1,0,0,1,36,49Z" style="fill:#323232"/><path d="M23.83,44H22V41a5,5,0,0,0-5-5H11a1,1,0,0,1-1-1V32.17A4.1,4.1,0,0,0,6.21,28a4,4,0,0,0-3,1.1A4,4,0,0,0,2,32v9a1,1,0,0,0,2,0V32a2,2,0,0,1,2.11-2A2.13,2.13,0,0,1,8,32.17V35a3,3,0,0,0,3,3h6a3,3,0,0,1,3,3v7a1,1,0,0,0,2,0V46h1.83A2.13,2.13,0,0,1,26,47.89,2,2,0,0,1,24,50H7a3,3,0,0,1-3-3V45a1,1,0,0,0-2,0v2a5,5,0,0,0,3.81,4.84L4,60.8a1,1,0,0,0,.21.83A1,1,0,0,0,5,62H7a1,1,0,0,0,.93-.63L11.68,52h6.64l3.75,9.37A1,1,0,0,0,23,62h2a1,1,0,0,0,.77-.37A1,1,0,0,0,26,60.8L24.22,52A4,4,0,0,0,28,47.79,4.1,4.1,0,0,0,23.83,44ZM6.32,60h-.1l1.6-8h1.7Zm17.36,0-3.2-8h1.7l1.6,8Z" style="fill:#323232"/><path d="M29,15a3,3,0,1,0,3-3A3,3,0,0,0,29,15Zm4,0a1,1,0,1,1-1-1A1,1,0,0,1,33,15Z" style="fill:#323232"/><path d="M22,22v5a1,1,0,0,0,1,1H41a1,1,0,0,0,1-1V22h0V16a1,1,0,0,0-2,0v4.52l-1.54-.61a4.4,4.4,0,0,0-4.76,1,2.4,2.4,0,0,1-3.4,0,4.4,4.4,0,0,0-4.76-1L24,20.52V10H40v2a1,1,0,0,0,2,0V9a1,1,0,0,0-1-1H37.47l-4.7-5.64a1,1,0,0,0-1.54,0L26.53,8H23a1,1,0,0,0-1,1V22ZM32,4.56,34.87,8H29.13Zm-5.71,17.2a2.4,2.4,0,0,1,2.59.54,4.42,4.42,0,0,0,6.24,0,2.41,2.41,0,0,1,2.6-.54l2.28.92V26H24V22.68Z" style="fill:#323232"/></g></g></svg>