<svg height="512" viewBox="0 0 64 64" width="512" xmlns="http://www.w3.org/2000/svg"><g id="_30-technology" data-name="30-technology"><path d="m64 0v51h-9.19l-8.89-2.94a4.616 4.616 0 0 1 -1.83 2.94h-44.09v-51h4a1.355 1.355 0 0 1 .2.02l34.72 6.94 18.73-6.9a1.073 1.073 0 0 1 .35-.06z" fill="#8fb2ad"/><path d="m35 51h-10v-40.613l10 1.613z" fill="#fde7ca"/><path d="m13 8.452-9-1.452v44h9 12v-40.613z" fill="#f9c47a"/><path d="m0 7h3v44h-3z" fill="#ac8143"/><path d="m63 52-5-1v-43h6v44z" fill="#f9c47a"/><path d="m52 9.714-8 2.286v35l2 .042 6 1.958 6 2v-43z" fill="#fde7ca"/><path d="m13.175 51a4.175 4.175 0 0 1 -4.175-4.175v-18.1a3.839 3.839 0 0 1 3.944-3.725h28.112a3.839 3.839 0 0 1 3.944 3.724v18.552a3.839 3.839 0 0 1 -3.944 3.724z" fill="#dfeafc"/><path d="m13 25h28v26h-28z" fill="#8d8d8d"/><path d="m21 30.696 6.783-1.696 6.782 1.696-6.782 2.826z" fill="#9a9acb"/><path d="m27.783 42 6.782-3.391v-7.913l-6.782 2.826z" fill="#464965"/><path d="m27.783 42-6.783-3.391v-7.913l6.783 2.826z" fill="#c2c2e0"/><path d="m2 63-.324-4.537a47.647 47.647 0 0 1 2.324-18.463l4.374-7.873a1.554 1.554 0 0 1 1.85-.719 1.548 1.548 0 0 1 .871 2.221c-.825 1.489-2.05 3.7-2.941 5.314a3.664 3.664 0 0 0 .28 3.969 2.005 2.005 0 0 0 3.163.059c.428-.53.882-1.09 1.278-1.579a1.966 1.966 0 0 1 2.625-.392 1.962 1.962 0 0 1 .626 2.584l-3.68 6.616a4.66 4.66 0 0 1 -1.163 1.375l-1.044.836a4.659 4.659 0 0 0 -1.039 6.106l2.8 4.483z" fill="#f8c2c2"/><path d="m38 8h2v17h-2z"/><path d="m58.31 50.05-.62 1.9-2.88-.95-8.89-2.94-.1-.03-.86-.03.08-2 .96.04h.04a1.173 1.173 0 0 1 .27.05z"/><path d="m11.152 63.53-2.8-4.483a5.659 5.659 0 0 1 1.264-7.419l1.044-.836a3.639 3.639 0 0 0 .914-1.08l3.674-6.612a.966.966 0 0 0 -1.6-1.074l-1.274 1.574a3.058 3.058 0 0 1 -2.391 1.114 2.985 2.985 0 0 1 -2.349-1.2 4.674 4.674 0 0 1 -.355-5.052c.891-1.617 2.116-3.826 2.942-5.316a.535.535 0 0 0 .032-.461.557.557 0 0 0 -1.005-.07l-4.329 7.785a46.426 46.426 0 0 0 -2.246 17.992l.327 4.537-2 .142-.322-4.537a48.416 48.416 0 0 1 2.373-18.85 1.033 1.033 0 0 1 .075-.17l4.374-7.872a2.554 2.554 0 0 1 4.47 2.472c-.825 1.489-2.049 3.7-2.94 5.312a2.668 2.668 0 0 0 .2 2.886 1.005 1.005 0 0 0 1.585.03l1.285-1.579a2.965 2.965 0 0 1 4.9 3.3l-3.68 6.621a5.657 5.657 0 0 1 -1.412 1.67l-1.044.836a3.659 3.659 0 0 0 -.818 4.8l2.8 4.483z"/><path d="m46 28.72v18.56a3.331 3.331 0 0 1 -.08.78 4.616 4.616 0 0 1 -1.83 2.94 5.008 5.008 0 0 1 -3.03 1h-29.06v-2h29.06a2.84 2.84 0 0 0 2.94-2.72v-18.56a2.84 2.84 0 0 0 -2.94-2.72h-28.12a2.84 2.84 0 0 0 -2.94 2.72v3.28h-2v-3.28a4.843 4.843 0 0 1 4.94-4.72h28.12a4.843 4.843 0 0 1 4.94 4.72z"/><path d="m12 26h2v15h-2z"/><path d="m28 47c-5.3 0-11-1.252-11-4 0-1.333 1.251-2.376 3.718-3.1l.564 1.919c-1.765.519-2.25 1.077-2.283 1.2.152.521 3.151 1.981 9.001 1.981s8.849-1.46 9-2.015c-.034-.1-.452-.563-1.866-1.037l.636-1.9c2.144.722 3.23 1.714 3.23 2.952 0 2.748-5.7 4-11 4z"/><path d="m64 0v2h-5.82l-18.83 6.94a1.073 1.073 0 0 1 -.35.06 1.355 1.355 0 0 1 -.2-.02l-34.9-6.98h-3.9v-2h4a1.355 1.355 0 0 1 .2.02l34.72 6.94 18.73-6.9a1.073 1.073 0 0 1 .35-.06z"/><path d="m36 25h-2v-12.148l-30.062-4.852-3.9.145-.074-2 4-.149a1.167 1.167 0 0 1 .2.013l31 5a1 1 0 0 1 .836.991z"/><path d="m24 10h2v15h-2z"/><path d="m27.783 43a1.012 1.012 0 0 1 -.448-.1l-6.782-3.4a1 1 0 0 1 -.553-.891v-7.909a1 1 0 0 1 1.385-.923l6.782 2.823a1 1 0 0 1 .616.923v8.477a1 1 0 0 1 -1 1zm-5.783-5.009 4.783 2.391v-6.194l-4.783-1.988z"/><path d="m27.783 43a1 1 0 0 1 -1-1v-8.478a1 1 0 0 1 .617-.922l6.783-2.826a1 1 0 0 1 1.384.923v7.913a1 1 0 0 1 -.552.894l-6.785 3.396a1 1 0 0 1 -.447.1zm1-8.812v6.194l4.782-2.391v-5.791z"/><path d="m27.783 34.522a1.006 1.006 0 0 1 -.385-.077l-6.783-2.826a1 1 0 0 1 .142-1.893l6.783-1.7a1 1 0 0 1 .485 0l6.783 1.7a1 1 0 0 1 .142 1.893l-6.783 2.826a1 1 0 0 1 -.384.077zm-3.612-3.588 3.612 1.5 3.612-1.5-3.612-.9z"/><path d="m40 26h2v24h-2z"/><path d="m45 26h-2v-14a1 1 0 0 1 .725-.961l14-4a.983.983 0 0 1 .275-.039h6v2h-5.86l-13.14 3.754z"/><path d="m64 52h-6a1 1 0 0 1 -1-1v-43h2v42h5z"/><path d="m3 7h2v33h-2z"/></g></svg>