<svg enable-background="new 0 0 512 512" height="512" viewBox="0 0 512 512" width="512" xmlns="http://www.w3.org/2000/svg"><g id="_x32_0_Q_x26_A"><g><g><path d="m312.289 185.363c0 63.469-69.059 114.953-154.253 114.953-15.934 0-31.299-1.808-45.76-5.122l-54.409 38.41c-5.094 3.596-11.905-1.111-10.343-7.147l13.401-51.783c-34.881-21.089-57.142-53.259-57.142-89.311 0-63.502 69.059-114.953 154.253-114.953s154.253 51.451 154.253 114.953z" fill="#65c5ef"/></g><g><path d="m46.101 239.544c-.876 0-1.753-.353-2.395-1.052-4.854-5.283-9.022-10.95-12.39-16.843-.892-1.558-.351-3.545 1.209-4.436 1.552-.889 3.543-.351 4.435 1.21 3.127 5.47 7.008 10.743 11.537 15.669 1.214 1.322 1.128 3.378-.196 4.594-.626.575-1.413.858-2.2.858z" fill="#fff"/></g><g><path d="m27.556 208.152c-1.389 0-2.675-.897-3.106-2.292-.922-2.987-1.641-6.05-2.134-9.103-.284-1.773.919-3.442 2.692-3.727 1.758-.304 3.439.918 3.729 2.691.445 2.756 1.092 5.522 1.925 8.219.531 1.716-.432 3.537-2.146 4.067-.32.098-.642.145-.96.145z" fill="#fff"/></g><g><path d="m179.058 303.964c0 63.469 69.059 114.953 154.253 114.953 15.934 0 31.299-1.808 45.76-5.122l54.409 38.41c5.094 3.596 11.905-1.111 10.343-7.147l-13.401-51.783c34.881-21.089 57.142-53.259 57.142-89.311 0-63.502-69.059-114.953-154.253-114.953s-154.253 51.451-154.253 114.953z" fill="#f9e109"/></g><g opacity=".1"><path d="m463.063 366.133c8.531-14.279 13.265-30.067 13.265-46.687 0-63.49-69.056-114.963-154.264-114.963-54.412 0-102.27 21.016-129.71 52.748 24.007-40.211 78.081-68.224 140.947-68.224 85.208 0 154.264 51.447 154.264 114.963-.001 22.889-8.974 44.243-24.502 62.163z"/></g><g><g><path d="m29.006 97.628c2.278-2.009 4.763-4.042 7.386-6.043 1.427-1.09 1.702-3.129.615-4.557-1.09-1.43-3.129-1.703-4.557-.615-2.746 2.094-5.352 4.227-7.747 6.337-1.346 1.187-1.476 3.242-.287 4.589 1.183 1.342 3.234 1.482 4.59.289z"/></g><g><path d="m51.107 81.47c13.553-8.325 28.656-14.99 44.895-19.811 1.722-.511 2.703-2.32 2.192-4.042s-2.329-2.7-4.041-2.191c-16.785 4.982-32.411 11.881-46.45 20.504-1.529.94-2.009 2.941-1.069 4.472.942 1.532 2.946 2.007 4.473 1.068z"/></g><g><path d="m508.367 306.21c-1.781-.069-3.315 1.302-3.401 3.094-.147 3.138-.452 6.325-.904 9.472-.257 1.777.978 3.425 2.756 3.68 1.759.255 3.422-.964 3.68-2.756.483-3.35.805-6.745.965-10.089.084-1.793-1.3-3.316-3.096-3.401z"/></g><g><path d="m504.273 333.614c-1.73-.545-3.538.418-4.074 2.131-4.707 15.025-12.733 29.135-23.853 41.937-1.179 1.355-1.034 3.409.323 4.587 1.347 1.172 3.404 1.038 4.585-.323 11.712-13.482 20.175-28.372 25.149-44.258.537-1.713-.418-3.536-2.13-4.074z"/></g><g><path d="m490.816 303.964c0-65.178-70.655-118.203-157.503-118.203-6.026 0-11.964.281-17.816.777 1.092-71.599-78.263-119.369-157.45-119.369-86.853 0-157.514 53.019-157.514 118.188 0 35.296 20.61 68.284 56.645 90.829l-12.794 49.459c-2.327 9.004 7.851 15.935 15.349 10.622l53.234-37.583c14.681 3.244 29.84 4.887 45.08 4.887 6.005 0 11.955-.317 17.801-.82-.005.406-.041.806-.041 1.213 0 65.178 70.658 118.204 157.506 118.204 15.286 0 30.437-1.643 45.065-4.883l53.228 37.576c7.508 5.307 17.692-1.618 15.365-10.616l-12.799-49.458c36.034-22.539 56.644-55.525 56.644-90.823zm-332.769-6.895c-15.245 0-30.404-1.697-45.052-5.043-.894-.203-1.844-.018-2.598.514l-54.417 38.418c-1.798 1.279-3.452.338-3.917.017-.467-.321-1.943-1.538-1.384-3.701l13.396-51.784c.361-1.391-.236-2.852-1.466-3.597-35.316-21.359-55.573-52.901-55.573-86.536 0-61.584 67.745-111.686 151.011-111.686 75.025 0 152.681 44.885 150.926 113.505-71.998 8.418-127.974 53.569-132.79 109.028-5.941.54-12.012.865-18.136.865zm270.693 93.424c-1.229.744-1.826 2.206-1.466 3.597l13.401 51.783c.805 3.114-2.703 5.52-5.321 3.677l-54.41-38.41c-.783-.553-1.737-.713-2.601-.513-14.59 3.344-29.738 5.039-45.032 5.039-83.264 0-151.004-50.109-151.004-111.702 0-61.591 67.74-111.701 151.004-111.701 83.262 0 151.001 50.109 151.001 111.701.001 33.637-20.255 65.176-55.572 86.529z"/></g><g><path d="m336.591 242.174c-.48-1.259-1.687-2.092-3.033-2.093-.003 0-.003 0-.005 0-1.346 0-2.553.829-3.035 2.085-3.173 8.263 14.035-36.549-46.569 121.27-.643 1.676.193 3.557 1.869 4.2 1.686.648 3.563-.204 4.201-1.871l14.602-38.053h57.612l14.362 37.802c.642 1.685 2.521 2.521 4.196 1.885 1.676-.638 2.522-2.516 1.885-4.194-60.04-157.68-42.914-112.705-46.085-121.031zm-29.471 79.036 26.421-68.781 26.218 68.781z"/></g><g><path d="m210.968 176.746c0-29.156-23.772-52.874-52.99-52.874-29.157 0-52.875 23.719-52.875 52.874 0 29.219 23.719 52.991 52.875 52.991 3.664 0 7.129-.37 10.521-1.078l16.268 17.178c1.23 1.304 3.292 1.36 4.595.126s1.359-3.293.124-4.596l-13.897-14.675c21.072-7.365 35.379-27.175 35.379-49.946zm-52.99 46.488c-25.57 0-46.373-20.855-46.373-46.489 0-25.569 20.803-46.372 46.373-46.372 25.634 0 46.487 20.803 46.487 46.372 0 26.049-21.057 46.489-46.487 46.489z"/></g></g></g></g></svg>