<svg id="Layer_5" enable-background="new 0 0 64 64" height="512" viewBox="0 0 64 64" width="512" xmlns="http://www.w3.org/2000/svg"><g><g><g><path d="m62 15.04c0 2.38-.76 4.62-2.08 6.46-1.33 1.83-3.22 3.26-5.47 4.02l-4.45 1.48v-7c3.31 0 6-2.69 6-6s-2.69-6-6-6c0-5-4-6-4-6h2.96c7.2 0 13.04 5.84 13.04 13.04z" fill="#656d78"/></g><g><path d="m26.57 46.54c-.37-.36-.86-.56-1.37-.56-.74 0-1.41.41-1.74 1.07l-.46.93h-1.06c-.54 0-1.02.22-1.37.56-.35.35-.57.84-.57 1.37 0 2.25 1.82 4.07 4.06 4.07h3.74l-.44 4.42c-.2 2.04-1.92 3.6-3.98 3.6h-6.76c-2.06 0-3.78-1.56-3.98-3.6l-1.64-16.4h18l-.6 5.98h-.4z" fill="#dfb28b"/></g><g><path d="m31 39v2c0 .55-.45 1-1 1h-1-18-1c-.55 0-1-.45-1-1v-2c0-.55.45-1 1-1h10 10c.55 0 1 .45 1 1z" fill="#cf9e76"/></g><g><path d="m41 47.98c.12 0 .24-.01.35-.01l.02.02c-.84.73-1.37 1.81-1.37 3.01 0 1.18.51 2.25 1.33 2.97-.11 0-.22.01-.33.01h-.04-10.28c-1.51-.15-2.68-1.41-2.68-2.96v-.04c0-1.65 1.34-2.98 2.98-2.98v-.02h8.94z" fill="#e6e9ed"/></g><g><path d="m52.99 46c-1.04 2.49-2.85 4.6-5.12 6.01.08-.32.13-.66.13-1.01 0-2.04-1.52-3.72-3.49-3.97 1.4-.81 2.49-2.09 3.06-3.62 1.28 1.58 3.23 2.59 5.42 2.59z" fill="#e6e9ed"/></g><g><path d="m41 43 3-6-3.21-3.21c.29-.32.61-.63.95-.91l2.26-1.88 6-2 3 3c-3.87 0-7 3.13-7 7 0 1.68.58 3.21 1.57 4.41-.57 1.53-1.66 2.81-3.06 3.62-.17-.02-.34-.03-.51-.03-1.01 0-1.93.37-2.63.99l-.02-.02c-.11 0-.23.01-.35.01h-1.08c-.3-1.03-.66-2.04-1.08-3.02-.1-.24-.2-.49-.28-.74z" fill="#e6e9ed"/></g><g><path d="m41.33 53.97c.71.64 1.64 1.03 2.67 1.03 1.86 0 3.42-1.27 3.87-2.99 2.27-1.41 4.08-3.52 5.12-6.01h.01c1.24 0 2.39-.32 3.4-.88-.26 1.52-.4 3.07-.4 4.62v12.26h-15v-6.52c0-.49-.01-.99-.04-1.48v-.02h.04c.11 0 .22-.01.33-.01z" fill="#e6e9ed"/></g><g><path d="m44 37-3 6-2.44 1.22c-.37-1.08-.56-2.21-.56-3.35 0-2.65 1-5.17 2.79-7.08z" fill="#69d6f4"/></g><g><path d="m50 29-6 2v-5.51c-.73.34-1.53.51-2.34.51-2.21 0-4.12-1.27-5.05-3.12-.39-.76-.61-1.63-.61-2.54v-.34l-2-1 .35-3h4.41c.69 0 1.24-.55 1.24-1.24v-3.52c0-.69-.55-1.24-1.24-1.24h-3.53c.61-2.03 1.77-3.8 3.3-5.16 1.99-1.77 4.62-2.84 7.47-2.84 0 0 4 1 4 6-3.31 0-6 2.69-6 6s2.69 6 6 6v7z" fill="#e6e9ed"/></g><g><path d="m28 47.98h.4 2.58v.02c-1.64 0-2.98 1.33-2.98 2.98v.04c0 1.55 1.17 2.81 2.68 2.96h-2.88-3.74c-2.24 0-4.06-1.82-4.06-4.07 0-.53.22-1.02.57-1.37.35-.34.83-.56 1.37-.56h1.06l.46-.93c.33-.66 1-1.07 1.74-1.07.51 0 1 .2 1.37.56z" fill="#f0d0b4"/></g><g><path d="m41.37 47.99c.7-.62 1.62-.99 2.63-.99.17 0 .34.01.51.03 1.97.25 3.49 1.93 3.49 3.97 0 .35-.05.69-.13 1.01-.45 1.72-2.01 2.99-3.87 2.99-1.03 0-1.96-.39-2.67-1.03-.82-.72-1.33-1.79-1.33-2.97 0-1.2.53-2.28 1.37-3.01z" fill="#fcd770"/></g><g><path d="m53 32c3.87 0 7 3.13 7 7 0 2.64-1.45 4.93-3.6 6.12-1.01.56-2.16.88-3.4.88h-.01c-2.19 0-4.14-1.01-5.42-2.59-.99-1.2-1.57-2.73-1.57-4.41 0-3.87 3.13-7 7-7z" fill="#fcd770"/></g><g><circle cx="53" cy="39" fill="#ffeaa7" r="3"/></g><g><path d="m50 8c3.31 0 6 2.69 6 6s-2.69 6-6 6-6-2.69-6-6 2.69-6 6-6z" fill="#fcd770"/></g><g><circle cx="50" cy="14" fill="#ffeaa7" r="2"/></g><g><path d="m40 11.24v3.52c0 .69-.55 1.24-1.24 1.24h-4.41l.48-4.07c.08-.67.21-1.31.4-1.93h3.53c.69 0 1.24.55 1.24 1.24z" fill="#69d6f4"/></g><g><path d="m28 14.6c0 1.88-.64 3.64-1.74 5.04-1.09 1.41-2.64 2.46-4.47 2.91l-1.79.45-1.79-.45c-3.65-.91-6.21-4.19-6.21-7.95 0-2.38.58-4.7 1.64-6.76s2.6-3.88 4.55-5.26c.53-.38 1.16-.58 1.81-.58s1.28.2 1.81.58c1.95 1.38 3.49 3.2 4.55 5.26s1.64 4.38 1.64 6.76z" fill="#b4dd7f"/></g><g><path d="m20 34h-8c-5.52 0-10-4.48-10-10h8c5.52 0 10 4.48 10 10z" fill="#b4dd7f"/></g><g><path d="m26 28h6c0 1.66-.67 3.16-1.76 4.24-1.08 1.09-2.58 1.76-4.24 1.76h-6c0-1.66.67-3.16 1.76-4.24 1.08-1.09 2.58-1.76 4.24-1.76z" fill="#a0d468"/></g></g><g><path d="m50 17c1.654 0 3-1.346 3-3s-1.346-3-3-3-3 1.346-3 3 1.346 3 3 3zm0-4c.551 0 1 .448 1 1s-.449 1-1 1-1-.448-1-1 .449-1 1-1z"/><path d="m53.436 31.022-2.436-2.436v-.866l3.767-1.256c4.924-1.641 8.233-6.231 8.233-11.422 0-7.743-6.299-14.042-14.042-14.042h-2.958c-6.208 0-11.436 4.649-12.162 10.814l-.914 7.766 2.081 1.041c.15 3.543 3.079 6.379 6.658 6.379.449 0 .896-.055 1.337-.145v3.677l-1.901 1.583c-2.605 2.171-4.099 5.362-4.099 8.752 0 1.552.31 3.062.921 4.487.228.531.433 1.074.625 1.621h-9.039l.398-3.975h.095c1.103 0 2-.897 2-2v-2c0-1.103-.897-2-2-2h-9v-2h5c3.86 0 7-3.141 7-7v-1h-7c-1.958 0-3.728.81-5 2.111v-5.33l1.036-.259c4.1-1.025 6.964-4.692 6.964-8.919 0-5.082-2.469-9.88-6.605-12.835-1.406-1.004-3.383-1.004-4.791 0-4.135 2.955-6.604 7.753-6.604 12.835 0 4.227 2.864 7.894 6.964 8.919l1.036.258v3.915c-1.992-2.834-5.28-4.695-9-4.695h-9v1c0 6.065 4.935 11 11 11h7v2h-9c-1.103 0-2 .897-2 2v2c0 1.103.897 2 2 2h.095l1.55 15.498c.256 2.566 2.396 4.502 4.975 4.502h6.76c2.58 0 4.719-1.936 4.976-4.502l.352-3.522h2.049c.081.005.159.024.243.024v-.024h8.986c.003.169.014.337.014.506v7.518h17v-13.259c0-1.345.121-2.696.332-4.026 2.204-1.426 3.668-3.901 3.668-6.715 0-4.264-3.356-7.749-7.564-7.978zm-27.436-2.022h4.899c-.464 2.279-2.485 4-4.899 4h-4.899c.464-2.279 2.484-4 4.899-4zm-14 4c-4.625 0-8.446-3.506-8.945-8h6.945c4.625 0 8.446 3.506 8.945 8zm6.449-11.418c-3.208-.803-5.449-3.673-5.449-6.979 0-4.438 2.156-8.628 5.767-11.208.362-.258.788-.395 1.233-.395s.871.137 1.232.395c3.612 2.58 5.768 6.77 5.768 11.208 0 3.307-2.241 6.177-5.449 6.979l-.551.138v-2.154l4.515-2.709-1.029-1.715-3.486 2.092v-3.734l3.6-2.7-1.2-1.6-2.4 1.8v-4h-2v4l-2.4-1.8-1.2 1.6 3.6 2.7v3.734l-3.485-2.091-1.029 1.715 4.514 2.708v2.154zm32.502-14.51c-.175-1.772-.842-3.099-1.663-4.056 1.847.05 3.59.516 5.141 1.311l-1.834 3.176c-.52-.207-1.071-.352-1.644-.431zm-.951 1.928c2.757 0 5 2.243 5 5s-2.243 5-5 5-5-2.243-5-5 2.243-5 5-5zm11 6.042c0 1.31-.256 2.573-.723 3.737l-3.782-2.184c.203-.505.345-1.04.425-1.595h4.078c0 .014.002.028.002.042zm-4.08-2.042c-.08-.555-.222-1.09-.425-1.595l3.176-1.834c.545 1.062.933 2.214 1.142 3.429zm-2.786 11.568-3.134 1.045v-4.693c.555-.08 1.09-.222 1.595-.425l2.206 3.821c-.219.09-.44.177-.667.252zm2.429-1.201-2.237-3.875c.433-.342.825-.733 1.167-1.167l3.856 2.226c-.728 1.108-1.671 2.067-2.786 2.816zm2.048-15.494-3.119 1.801c-.342-.433-.733-.824-1.167-1.167l1.801-3.119c.945.704 1.782 1.541 2.485 2.485zm-22.603 3.127h2.754c.131 0 .238.106.238.238v3.523c0 .133-.107.239-.238.239h-3.284l.347-2.951c.042-.357.106-.705.183-1.049zm2.298 12.559.929-.186c1.602-.321 2.765-1.739 2.765-3.373h-2c0 .684-.487 1.277-1.157 1.412l-1.606.321c-.14-.444-.237-.907-.237-1.396v-.955l-1.925-.962.167-1.42h3.519c1.235 0 2.239-1.004 2.239-2.238v-3.523c0-1.235-1.004-2.239-2.238-2.239h-2.077c1.607-3.524 5.128-5.944 9.173-5.999.5.168 2.701 1.078 3.08 4.088-3.356.515-5.938 3.413-5.938 6.911 0 3.519 2.613 6.432 6 6.92v7.359l-4 1.334v-3.494l2.447-1.224-.895-1.789-2.804 1.402c-.644.322-1.366.492-2.085.492-1.32 0-2.508-.557-3.357-1.441zm2.55 11.711 1.927 1.927-2.529 5.058-1.057.528c-.13-.627-.197-1.267-.197-1.916 0-2.043.664-3.994 1.856-5.597zm-1.04 9.44 1.93-.965 3.471-6.942-3-3c.056-.049.105-.103.162-.151l2.116-1.764 5.235-1.744 1.15 1.15c-3.384.933-5.88 4.03-5.88 7.706 0 1.678.522 3.236 1.409 4.524-.482 1.02-1.238 1.888-2.194 2.498-.073-.003-.141-.022-.215-.022-1.101 0-2.111.369-2.938.974-.021 0-.042.002-.063.002h-.351c-.246-.766-.52-1.525-.832-2.266zm9.083 5.291c-.286-1.404-1.171-2.579-2.366-3.288.5-.482.949-1.014 1.308-1.609 1.019.863 2.255 1.475 3.614 1.742-.668 1.184-1.533 2.257-2.556 3.155zm-24.836 2.975c-1.688 0-3.063-1.374-3.063-3.063 0-.517.42-.938.938-.938h1.681l.741-1.482c.271-.544 1.071-.673 1.501-.243l1.707 1.707c-.361.611-.568 1.309-.568 2.067 0 .712.203 1.372.533 1.95zm4.937-2c0-.531.208-1.029.584-1.403.376-.373.896-.587 1.407-.572v-.024h8.445c-.275.619-.436 1.301-.436 2.023 0 .7.147 1.366.408 1.971l-8.692.002c-.966-.128-1.716-.952-1.716-1.997zm12 .024c0-1.654 1.346-3 3-3s3 1.346 3 3-1.346 3-3 3-3-1.346-3-3zm-31-12h20l.001 2h-20.001zm16.365 19.299c-.154 1.54-1.437 2.701-2.985 2.701h-6.76c-1.548 0-2.832-1.161-2.985-2.701l-1.53-15.299h15.79l-.314 3.142-.306-.306c-.555-.555-1.292-.86-2.077-.86-1.12 0-2.127.622-2.627 1.623l-.188.377h-.444c-1.62 0-2.938 1.317-2.938 2.938 0 2.791 2.271 5.063 5.063 5.063h2.635zm28.635-8.558v11.259h-13v-5.424c.614.27 1.288.424 2 .424 2.171 0 4.005-1.4 4.694-3.338 2.155-1.42 3.851-3.373 4.951-5.695.531-.043 1.047-.138 1.544-.279-.112 1.015-.189 2.035-.189 3.053zm-2-4.741c-3.309 0-6-2.691-6-6s2.691-6 6-6 6 2.691 6 6-2.691 6-6 6z"/><path d="m53 35c-2.206 0-4 1.794-4 4s1.794 4 4 4 4-1.794 4-4-1.794-4-4-4zm0 6c-1.103 0-2-.897-2-2s.897-2 2-2 2 .897 2 2-.897 2-2 2z"/><circle cx="32" cy="51" r="1"/><circle cx="36" cy="51" r="1"/><circle cx="44" cy="51" r="1"/></g></g></svg>